Coordinates
version=1
nRows=14
nColumns=40
inDegrees=yes

Units are S.I. units (second, meters, Newtons, ...)
Angles are in degrees.

endheader
time	pelvis_tilt	pelvis_list	pelvis_rotation	pelvis_tx	pelvis_ty	pelvis_tz	hip_flexion_r	hip_adduction_r	hip_rotation_r	knee_angle_r	knee_angle_r_beta	ankle_angle_r	subtalar_angle_r	mtp_angle_r	hip_flexion_l	hip_adduction_l	hip_rotation_l	knee_angle_l	knee_angle_l_beta	ankle_angle_l	subtalar_angle_l	mtp_angle_l	lumbar_extension	lumbar_bending	lumbar_rotation	arm_flex_r	arm_add_r	arm_rot_r	elbow_flex_r	pro_sup_r	wrist_flex_r	wrist_dev_r	arm_flex_l	arm_add_l	arm_rot_l	elbow_flex_l	pro_sup_l	wrist_flex_l	wrist_dev_l
      1.02000000	     -0.92485227	      0.55553352	     -1.37317381	      0.46686335	      0.92912212	      1.12347348	    -15.01381014	     -4.59130872	    -24.07610563	    -11.98814012	     -0.20923252	     10.53851501	     11.55142936	    -17.08183548	     28.27796617	      3.70285929	     29.11423477	    -12.17704041	     -0.21252945	      1.01083901	      2.09911026	      7.54435779	     -0.79604680	     -5.15631299	      8.68136796	     11.12164197	    -18.34496324	    -11.36454946	     39.18533113	     89.95437384	      0.00000000	      0.00000000	    -14.75142325	     16.90150359	     15.04662496	      4.55102603	     89.95437384	      0.00000000	      0.00000000
      1.03000000	     -0.80972217	      0.72494474	     -1.84316794	      0.48222937	      0.92775333	      1.12163643	    -15.59351538	     -5.29518077	    -23.82236751	    -12.94747155	     -0.22597601	      9.98259771	     11.26463591	    -16.77540421	     28.02745429	      3.59566490	     28.87268604	    -12.78916359	     -0.22321301	      1.17861550	      2.81474883	      7.29352045	     -0.58280458	     -5.26773607	      9.28775427	     10.93771903	    -18.35751850	    -12.07942653	     40.43680710	     89.95437384	      0.00000000	      0.00000000	    -15.83074030	     16.92987708	     14.86023165	      4.06793456	     89.95437384	      0.00000000	      0.00000000
      1.04000000	     -0.66997083	      1.41733984	     -2.32708478	      0.49824005	      0.92670788	      1.11903647	    -16.06999330	     -6.87785028	    -24.28818108	    -14.36934396	     -0.25079236	      9.51521979	     12.44811575	    -16.98584833	     27.31072894	      2.52523004	     27.90674966	    -12.77575281	     -0.22297895	      1.24105824	      5.58242835	      6.78701389	     -0.25891018	     -5.88396083	     10.18337222	     10.31560662	    -18.30281323	    -13.29043817	     41.83539269	     89.95437384	      0.00000000	      0.00000000	    -16.77857359	     17.09837018	     12.33285625	      3.52346604	     89.95437384	      0.00000000	      0.00000000
      1.05000000	     -0.63373720	      1.58775798	     -2.70161962	      0.51441554	      0.92553866	      1.11656442	    -16.49670553	     -7.72928763	    -24.04620873	    -15.53117431	     -0.27107013	      8.63633298	     12.53423139	    -16.80578774	     26.92696211	      2.22578961	     26.81396013	    -13.70299449	     -0.23916237	      1.48805582	      6.64849920	      6.36687702	      0.15922791	     -5.95069727	     10.75443429	      9.72648409	    -18.27913464	    -14.07261054	     43.21593101	     89.95437384	      0.00000000	      0.00000000	    -17.84978509	     17.06797947	     11.53916002	      3.21636252	     89.95437384	      0.00000000	      0.00000000
      1.06000000	     -0.59072162	      1.67100128	     -3.01095590	      0.53088187	      0.92443444	      1.11398829	    -16.94236652	     -8.43704248	    -23.45558374	    -16.63685860	     -0.29036796	      7.50393563	     12.09927149	    -16.22928445	     26.51952229	      2.06596889	     25.66625053	    -14.95092090	     -0.26094280	      1.50905697	      6.80617773	      6.10491170	      0.59596109	     -5.93389582	     11.19221371	      9.03533998	    -18.34234838	    -14.46039041	     44.58109638	     89.95437384	      0.00000000	      0.00000000	    -18.91134651	     16.98043466	     11.59595837	      2.95150327	     89.95437384	      0.00000000	      0.00000000
      1.07000000	     -0.52298790	      1.80107694	     -3.11881156	      0.54758866	      0.92360473	      1.11096889	    -17.44823599	     -9.18350844	    -23.07794566	    -17.70620005	     -0.30903149	      6.00897488	     11.90924624	    -15.61292124	     26.39309415	      1.88811170	     25.63966571	    -16.44332150	     -0.28699010	     -0.29111865	      7.53737730	      6.27210154	      1.00206333	     -5.99519317	     11.38185910	      8.33716452	    -18.23796497	    -14.98606414	     45.83471353	     89.95437384	      0.00000000	      0.00000000	    -19.95544045	     16.86806756	     11.64044590	      2.76589388	     89.95437384	      0.00000000	      0.00000000
      1.08000000	     -0.57441698	      2.03952740	     -3.12716273	      0.56385642	      0.92309238	      1.10776203	    -17.59729639	    -10.09209120	    -22.80008706	    -19.08161432	     -0.33303700	      4.29819313	     11.64155360	    -14.93902331	     26.37222718	      1.56331865	     24.87090667	    -17.24761355	     -0.30102764	     -2.52197767	      7.88834872	      6.38802549	      1.50002965	     -6.20523903	     11.53473143	      7.62859816	    -17.95188891	    -15.80819503	     46.91488949	     89.95437384	      0.00000000	      0.00000000	    -20.81672304	     16.78401012	     11.91516367	      2.65091960	     89.95437384	      0.00000000	      0.00000000
      1.09000000	     -0.93191163	      2.82287884	     -2.78796217	      0.57955743	      0.92226467	      1.10292305	    -17.04642550	    -11.85683604	    -23.35308186	    -21.41585708	     -0.37377722	      2.57442696	     12.55805111	    -14.20410314	     26.82534706	      0.05464096	     21.69808884	    -17.97737760	     -0.31376443	     -4.12436655	      9.90057899	      4.81708977	      2.29457436	     -6.96215368	     11.34255573	      6.96015355	    -17.62423614	    -16.56502263	     47.76990997	     89.95437384	      0.00000000	      0.00000000	    -21.62212730	     16.64579944	     12.16536687	      2.67765160	     89.95437384	      0.00000000	      0.00000000
      1.10000000	     -1.14479511	      2.95646219	     -2.41860498	      0.59538862	      0.92175375	      1.09837167	    -16.53987732	    -12.72766951	    -23.38479322	    -23.62152887	     -0.41227345	      0.00346218	     11.70609296	    -13.14553921	     27.70286430	     -0.19457866	     20.10366747	    -20.87985851	     -0.36442228	     -4.44309308	      9.80391321	      4.25973749	      2.89892686	     -6.98847687	     11.12744037	      6.13442644	    -17.45147469	    -17.12360253	     48.75785688	     89.95437384	      0.00000000	      0.00000000	    -22.28101342	     16.41916168	     12.20044400	      2.61952668	     89.95437384	      0.00000000	      0.00000000
      1.11000000	     -2.00070626	      3.20432638	     -1.72056452	      0.61052301	      0.92037822	      1.09271569	    -14.91731987	    -13.88410460	    -23.75334335	    -26.64200770	     -0.46499075	     -2.66225908	     11.68654201	    -11.92542700	     29.39137435	     -1.12849915	     17.42440689	    -23.86209480	     -0.41647212	     -3.92185896	     12.39643765	      3.13306953	      4.15878208	     -7.09966931	     10.62733868	      5.17747463	    -17.30605557	    -17.59350011	     49.67004926	     89.95437384	      0.00000000	      0.00000000	    -22.85655835	     16.14316891	     12.91781474	      2.66335598	     89.95437384	      0.00000000	      0.00000000
      1.12000000	     -2.50106647	      3.32326397	     -1.02066958	      0.62559559	      0.91995276	      1.08754259	    -13.57123106	    -14.72346036	    -23.71535627	    -29.41333225	     -0.51335949	     -6.34822410	     10.39332659	    -10.63757270	     30.19942477	     -2.02957941	     15.55682006	    -25.78730355	     -0.45007335	     -3.64921989	     13.68063129	      2.90373719	      4.96462429	     -7.15247962	     10.17586265	      4.22552659	    -16.97789755	    -18.34600700	     50.48810418	     89.95437384	      0.00000000	      0.00000000	    -23.22378452	     15.93144275	     13.09244809	      2.73813967	     89.95437384	      0.00000000	      0.00000000
      1.13000000	     -2.49533588	      3.40951518	     -0.57081308	      0.64061529	      0.92053518	      1.08290801	    -12.56965855	    -15.50377890	    -23.24060602	    -32.05227134	     -0.55941767	    -10.30178622	      9.31160206	     -9.52192748	     29.90367504	     -2.83667236	     14.18563995	    -26.99362114	     -0.47112757	     -2.49314205	     13.96139541	      2.55571544	      5.14965192	     -7.15388430	      9.94663392	      3.27269998	    -16.76658926	    -18.82708032	     51.29512413	     89.95437384	      0.00000000	      0.00000000	    -23.34463579	     15.71724604	     13.18980730	      2.92299653	     89.95437384	      0.00000000	      0.00000000
      1.14000000	     -3.05919322	      4.03319765	      0.18842068	      0.65500519	      0.92052929	      1.07733982	    -10.76104100	    -16.74387585	    -22.59084144	    -34.97996474	     -0.61051556	    -13.45255244	      7.20846782	     -4.68687846	     29.98850035	     -4.72681849	     11.99932744	    -27.67528555	     -0.48302485	     -0.61302243	     16.26587999	      7.39565723	      5.90950536	     -7.78265773	      9.43229757	      2.28514094	    -16.43983731	    -19.17918489	     52.00159340	     89.95437384	      0.00000000	      0.00000000	    -23.36842411	     15.51859119	     14.01493304	      3.01875291	     89.95437384	      0.00000000	      0.00000000
      1.15000000	     -3.01874738	      4.32051275	      0.69671256	      0.66922311	      0.92158978	      1.07294792	     -9.46933864	    -17.43531538	    -21.36822612	    -37.82679602	     -0.66020214	    -15.63842978	      6.12720508	     -4.22481327	     29.30463667	     -5.84828919	     10.62397303	    -28.33061788	     -0.49446256	      0.68025237	     16.85010348	      7.04680051	      5.94329209	     -8.06915180	      9.17631574	      1.42346378	    -16.02586635	    -19.70921128	     52.47407766	     89.95437384	      0.00000000	      0.00000000	    -23.16684928	     15.38080607	     14.33174039	      3.22961026	     89.95437384	      0.00000000	      0.00000000
